# xmcd
#
# Track frame offsets:
#	150
#	19040
#	32950
#	43892
#	59764
#	77272
#	90702
#	101767
#	110145
#	122320
#
# Disc length: 1839 seconds
#
# Revision: 0
# Processed by: cddbd v1.5.2PL0 Copyright (c) Steve Scherf et al.
# Submitted via: dBpowerAMP V4.0
#
DISCID=80072d0a
DTITLE=Hugo Veloso - Um Eco na Cidade
DYEAR=1900
DGENRE=
TTITLE0=Lampadas
TTITLE1=Bom de Papo
TTITLE2=Um Eco na Cidade
TTITLE3=Boca
TTITLE4=Tempero
TTITLE5=De Cueca
TTITLE6=A Morta
TTITLE7=O Menino Ri
TTITLE8=O Povo e a Canção
TTITLE9=Despertar
EXTD=
EXTT0=
EXTT1=
EXTT2=
EXTT3=
EXTT4=
EXTT5=
EXTT6=
EXTT7=
EXTT8=
EXTT9=
PLAYORDER=
